# xmcd CD database file
#
# Track frame offsets:
#	150
#	27538
#	44500
#	77547
#	97719
#	135820
#	146788
#	164765
#	201872
#
# Disc length: 3130 seconds
#
# Revision: 0
# Processed by: cddbd v1.5.2PL0 Copyright (c) Steve Scherf et al.
# Submitted via: CDex 1.70beta3
#
DISCID=740c3809
DTITLE=Kita Naoki x Tanaka Nobumasa - Contigo en La Distancia
DYEAR=1900
DGENRE=Jazz
TTITLE0=Naufrágio
TTITLE1=Olha Maria
TTITLE2=Soledad
TTITLE3=Chorinho Pra Ele
TTITLE4=Chiquilín de Bachín
TTITLE5=O Voo da Mosca
TTITLE6=Eu the amo
TTITLE7=Alfonsina y El Mar
TTITLE8=Contigo en La Distancia
EXTD=
EXTT0=
EXTT1=
EXTT2=
EXTT3=
EXTT4=
EXTT5=
EXTT6=
EXTT7=
EXTT8=
PLAYORDER=
